<svg xmlns="http://www.w3.org/2000/svg" width="1200" height="760" viewBox="0 0 1200 760" role="img" aria-labelledby="title desc">
  <title id="title">DevTinder developer feed preview</title>
  <desc id="desc">A dark app dashboard showing developer feed cards with ignore and interested actions.</desc>
  <defs>
    <linearGradient id="bg" x1="0" y1="0" x2="1" y2="1">
      <stop offset="0" stop-color="#090c12"/>
      <stop offset="0.6" stop-color="#0d1420"/>
      <stop offset="1" stop-color="#101016"/>
    </linearGradient>
    <linearGradient id="card" x1="0" y1="0" x2="0" y2="1">
      <stop offset="0" stop-color="#1b2635"/>
      <stop offset="1" stop-color="#101822"/>
    </linearGradient>
  </defs>
  <rect width="1200" height="760" fill="url(#bg)"/>
  <circle cx="1060" cy="80" r="210" fill="#ffb000" opacity="0.11"/>
  <circle cx="180" cy="120" r="230" fill="#2de1c2" opacity="0.1"/>
  <rect x="0" y="0" width="1200" height="78" fill="#090c12" opacity="0.88"/>
  <rect x="54" y="20" width="40" height="40" rx="8" fill="#ffb000"/>
  <text x="112" y="46" font-family="Inter, Segoe UI, Arial, sans-serif" font-size="24" font-weight="800" fill="#f5f1e8">DevTinder</text>
  <g font-family="Inter, Segoe UI, Arial, sans-serif" font-size="15" font-weight="700">
    <rect x="390" y="20" width="88" height="40" rx="8" fill="#ffb000" opacity="0.16" stroke="#ffb000" stroke-opacity="0.35"/>
    <text x="418" y="46" fill="#f5f1e8">Feed</text>
    <text x="508" y="46" fill="#9aa7b8">Requests</text>
    <text x="610" y="46" fill="#9aa7b8">Connections</text>
    <text x="742" y="46" fill="#9aa7b8">Profile</text>
  </g>
  <g transform="translate(70 126)">
    <text x="0" y="20" font-family="Inter, Segoe UI, Arial, sans-serif" font-size="14" font-weight="800" fill="#ffb000">DISCOVERY</text>
    <text x="0" y="72" font-family="Inter, Segoe UI, Arial, sans-serif" font-size="46" font-weight="850" fill="#f5f1e8">Developer feed</text>
    <text x="0" y="108" font-family="Inter, Segoe UI, Arial, sans-serif" font-size="18" fill="#9aa7b8">Scan builders, send interest, or clear a card from your graph.</text>
    <rect x="900" y="30" width="118" height="46" rx="8" fill="#ffffff" opacity="0.06" stroke="#ffffff" stroke-opacity="0.1"/>
    <text x="928" y="59" font-family="Inter, Segoe UI, Arial, sans-serif" font-size="15" font-weight="800" fill="#f5f1e8">Refresh</text>
    <g transform="translate(0 154)">
      <rect width="500" height="210" rx="10" fill="url(#card)" stroke="#ffffff" stroke-opacity="0.1"/>
      <rect x="30" y="30" width="72" height="72" rx="10" fill="#ffb000"/>
      <text x="49" y="75" font-family="Inter, Segoe UI, Arial, sans-serif" font-size="24" font-weight="900" fill="#090c12">AR</text>
      <text x="124" y="56" font-family="Inter, Segoe UI, Arial, sans-serif" font-size="25" font-weight="850" fill="#f5f1e8">Aarav Rao</text>
      <text x="124" y="84" font-family="Inter, Segoe UI, Arial, sans-serif" font-size="15" fill="#9aa7b8">26 yrs / Male</text>
      <text x="30" y="128" font-family="Inter, Segoe UI, Arial, sans-serif" font-size="15" fill="#9aa7b8">Full-stack developer focused on product engineering</text>
      <rect x="30" y="154" width="70" height="28" rx="14" fill="#ffffff" opacity="0.06"/>
      <rect x="112" y="154" width="74" height="28" rx="14" fill="#ffffff" opacity="0.06"/>
      <rect x="198" y="154" width="88" height="28" rx="14" fill="#ffffff" opacity="0.06"/>
      <text x="48" y="173" font-family="Inter, Segoe UI, Arial, sans-serif" font-size="12" fill="#f5f1e8">React</text>
      <text x="132" y="173" font-family="Inter, Segoe UI, Arial, sans-serif" font-size="12" fill="#f5f1e8">Node.js</text>
      <text x="218" y="173" font-family="Inter, Segoe UI, Arial, sans-serif" font-size="12" fill="#f5f1e8">MongoDB</text>
      <line x1="0" y1="188" x2="500" y2="188" stroke="#ffffff" stroke-opacity="0.1"/>
      <text x="105" y="203" font-family="Inter, Segoe UI, Arial, sans-serif" font-size="14" font-weight="800" fill="#ff6b7a">Ignore</text>
      <text x="338" y="203" font-family="Inter, Segoe UI, Arial, sans-serif" font-size="14" font-weight="800" fill="#2de1c2">Interested</text>
    </g>
    <g transform="translate(536 154)">
      <rect width="500" height="210" rx="10" fill="url(#card)" stroke="#ffffff" stroke-opacity="0.1"/>
      <rect x="30" y="30" width="72" height="72" rx="10" fill="#2de1c2"/>
      <text x="50" y="75" font-family="Inter, Segoe UI, Arial, sans-serif" font-size="24" font-weight="900" fill="#090c12">KS</text>
      <text x="124" y="56" font-family="Inter, Segoe UI, Arial, sans-serif" font-size="25" font-weight="850" fill="#f5f1e8">Kavya Shah</text>
      <text x="124" y="84" font-family="Inter, Segoe UI, Arial, sans-serif" font-size="15" fill="#9aa7b8">24 yrs / Female</text>
      <text x="30" y="128" font-family="Inter, Segoe UI, Arial, sans-serif" font-size="15" fill="#9aa7b8">Frontend engineer crafting fast, accessible interfaces.</text>
      <rect x="30" y="154" width="76" height="28" rx="14" fill="#ffffff" opacity="0.06"/>
      <rect x="118" y="154" width="70" height="28" rx="14" fill="#ffffff" opacity="0.06"/>
      <rect x="200" y="154" width="82" height="28" rx="14" fill="#ffffff" opacity="0.06"/>
      <text x="50" y="173" font-family="Inter, Segoe UI, Arial, sans-serif" font-size="12" fill="#f5f1e8">Vue</text>
      <text x="135" y="173" font-family="Inter, Segoe UI, Arial, sans-serif" font-size="12" fill="#f5f1e8">React</text>
      <text x="220" y="173" font-family="Inter, Segoe UI, Arial, sans-serif" font-size="12" fill="#f5f1e8">Design</text>
      <line x1="0" y1="188" x2="500" y2="188" stroke="#ffffff" stroke-opacity="0.1"/>
      <text x="105" y="203" font-family="Inter, Segoe UI, Arial, sans-serif" font-size="14" font-weight="800" fill="#ff6b7a">Ignore</text>
      <text x="338" y="203" font-family="Inter, Segoe UI, Arial, sans-serif" font-size="14" font-weight="800" fill="#2de1c2">Interested</text>
    </g>
    <g transform="translate(0 394)">
      <rect width="500" height="112" rx="10" fill="url(#card)" opacity="0.76" stroke="#ffffff" stroke-opacity="0.1"/>
      <rect x="30" y="28" width="56" height="56" rx="8" fill="#ffffff" opacity="0.08"/>
      <rect x="112" y="32" width="184" height="18" rx="9" fill="#ffffff" opacity="0.11"/>
      <rect x="112" y="64" width="286" height="14" rx="7" fill="#ffffff" opacity="0.08"/>
    </g>
    <g transform="translate(536 394)">
      <rect width="500" height="112" rx="10" fill="url(#card)" opacity="0.76" stroke="#ffffff" stroke-opacity="0.1"/>
      <rect x="30" y="28" width="56" height="56" rx="8" fill="#ffffff" opacity="0.08"/>
      <rect x="112" y="32" width="184" height="18" rx="9" fill="#ffffff" opacity="0.11"/>
      <rect x="112" y="64" width="286" height="14" rx="7" fill="#ffffff" opacity="0.08"/>
    </g>
  </g>
</svg>
